<svg xmlns="http://www.w3.org/2000/svg" width="119" height="30" viewBox="0 0 119 30"><g fill="none" fill-rule="evenodd"><path fill="#FFE697" d="M0 24h30v6H0z"/><path fill="#FFCF59" d="M18 24h10.395A11.995 11.995 0 0 1 18 30v-6zm0 1.25a.25.25 0 1 0 0 .5v-.5zm-6 0a.25.25 0 1 1 0 .5v-.5zm6 2a.25.25 0 1 0 0 .5v-.5zm-6 0a.25.25 0 1 1 0 .5v-.5zm6 2a.25.25 0 1 0 0 .5v-.5zm-6 0a.25.25 0 1 1 0 .5v-.5zm1-4.5a.25.25 0 1 1 0-.5.25.25 0 0 1 0 .5zm2 0a.25.25 0 1 1 0-.5.25.25 0 0 1 0 .5zm2 0a.25.25 0 1 1 0-.5.25.25 0 0 1 0 .5zm-3 1a.25.25 0 1 1 0-.5.25.25 0 0 1 0 .5zm2 0a.25.25 0 1 1 0-.5.25.25 0 0 1 0 .5zm-3 1a.25.25 0 1 1 0-.5.25.25 0 0 1 0 .5zm2 0a.25.25 0 1 1 0-.5.25.25 0 0 1 0 .5zm2 0a.25.25 0 1 1 0-.5.25.25 0 0 1 0 .5zm-3 1a.25.25 0 1 1 0-.5.25.25 0 0 1 0 .5zm2 0a.25.25 0 1 1 0-.5.25.25 0 0 1 0 .5zm-3 1a.25.25 0 1 1 0-.5.25.25 0 0 1 0 .5zm2 0a.25.25 0 1 1 0-.5.25.25 0 0 1 0 .5zm2 0a.25.25 0 1 1 0-.5.25.25 0 0 1 0 .5zm-3 1a.25.25 0 1 1 0-.5.25.25 0 0 1 0 .5zm2 0a.25.25 0 1 1 0-.5.25.25 0 0 1 0 .5z"/><path fill="#FF5A6E" d="M12 12h18v6H12z"/><path fill="#AAE7ED" d="M0 12h6v6H0zM0 0h30v6H0z"/><path fill="#71D1DC" d="M24 6H13.605C15.68 2.413 19.558 0 24 0v6zm6-4.75a.25.25 0 1 0 0 .5v-.5zm-6 0a.25.25 0 1 1 0 .5v-.5zm6 2a.25.25 0 1 0 0 .5v-.5zm-6 0a.25.25 0 1 1 0 .5v-.5zm6 2a.25.25 0 1 0 0 .5v-.5zm-6 0a.25.25 0 1 1 0 .5v-.5zm1-4.5a.25.25 0 1 1 0-.5.25.25 0 0 1 0 .5zm2 0a.25.25 0 1 1 0-.5.25.25 0 0 1 0 .5zm2 0a.25.25 0 1 1 0-.5.25.25 0 0 1 0 .5zm-3 1a.25.25 0 1 1 0-.5.25.25 0 0 1 0 .5zm2 0a.25.25 0 1 1 0-.5.25.25 0 0 1 0 .5zm-3 1a.25.25 0 1 1 0-.5.25.25 0 0 1 0 .5zm2 0a.25.25 0 1 1 0-.5.25.25 0 0 1 0 .5zm2 0a.25.25 0 1 1 0-.5.25.25 0 0 1 0 .5zm-3 1a.25.25 0 1 1 0-.5.25.25 0 0 1 0 .5zm2 0a.25.25 0 1 1 0-.5.25.25 0 0 1 0 .5zm-3 1a.25.25 0 1 1 0-.5.25.25 0 0 1 0 .5zm2 0a.25.25 0 1 1 0-.5.25.25 0 0 1 0 .5zm2 0a.25.25 0 1 1 0-.5.25.25 0 0 1 0 .5zm-3 1a.25.25 0 1 1 0-.5.25.25 0 0 1 0 .5zm2 0a.25.25 0 1 1 0-.5.25.25 0 0 1 0 .5z"/><path fill="#AAE7ED" d="M13.605 6A11.945 11.945 0 0 0 12 12h6a6 6 0 0 1 6-6H13.605z"/><path fill="#FFE697" d="M28.395 24A11.945 11.945 0 0 0 30 18h-6a6 6 0 0 1-6 6h10.395z"/><g><path fill="#081452" d="M98.002 19.5H98c0 5.799 4.701 10.5 10.5 10.5v-5.676a4.826 4.826 0 0 1-4.766-4.074h15.252c.014-.284.014-.569.014-.853C119 12.412 115.212 8 108.541 8 102.406 8 98 12.82 98 19.274c0 .076 0 .151.002.226zm-6.752-11V0h-6v30h6V14.5h6v-6h-6zM51.918 0c5.802 0 8.189 4.194 8.888 6.291l-4.814 2.18c-.618-1.357-1.688-3.126-4.198-3.126-1.975 0-3.127 1.193-3.127 2.755 0 4.77 12.51 4.071 12.51 12.994 0 5.058-3.622 8.758-9.63 8.758-6.173 0-8.724-4.317-9.547-6.661l4.897-2.385c.782 1.892 2.387 3.66 4.98 3.66 2.14 0 3.415-1.11 3.415-2.96 0-4.935-12.428-4.113-12.428-13.323C42.864 3.33 46.404 0 51.918 0zM64.25 30V0h6v30h-6zm10.5 0V8.5h6V30h-6zm29.5-13.75h8.5c-.382-2.138-2.046-3.5-4.248-3.5-2.258 0-3.797 1.474-4.252 3.5z"/><path fill="#AAE7ED" d="M74.5 0h6v6h-6z"/><path fill="#FFE697" d="M113 24h6v6h-6z"/></g></g></svg>